<?xml version="1.0" encoding="utf-8"?>
<!-- Generator: Adobe Illustrator 22.0.1, SVG Export Plug-In . SVG Version: 6.00 Build 0)  -->
<svg version="1.1" id="Layer_1" xmlns="http://www.w3.org/2000/svg" xmlns:xlink="http://www.w3.org/1999/xlink" x="0px" y="0px"
	 viewBox="0 0 380 450" style="enable-background:new 0 0 380 450;" xml:space="preserve">
<style type="text/css">
	.st0{fill:none;stroke:#000066;stroke-width:7;stroke-miterlimit:10;}
	.st1{fill:none;stroke:#231F20;stroke-width:4;stroke-miterlimit:10;}
	.st2{fill:none;stroke:#FFFFFF;stroke-width:3;stroke-miterlimit:10;}
	.st3{fill:#FFFFFF;}
	.st4{fill:#000066;}
</style>
<line class="st0" x1="188.3" y1="207.7" x2="188.3" y2="426.2"/>
<path class="st0" d="M205.1,206.2c0-22,67.7-39.7,151.4-39.7"/>
<path class="st0" d="M170.8,209.7c0-25-65.6-45.2-146.6-45.2"/>
<path class="st1" d="M226.6,183.8c0,0.3-0.6,0.6-1.3,0.6"/>
<path class="st0" d="M197.7,419.4c0-22,67.7-39.7,151.4-39.7"/>
<path class="st0" d="M175.4,419.9c0-25-65.6-45.2-146.6-45.2"/>
<path class="st2" d="M180.4,200.1c0-36.2-75.1-65.5-167.8-65.5"/>
<path class="st2" d="M194.8,200.1c0-36.2,77.2-65.5,172.6-65.5"/>
<path class="st2" d="M95.5,137.8c0-40.6,17.2-73.5,38.4-73.5"/>
<path class="st2" d="M177.5,164.5c1.9-54.5-17.6-99.3-43.6-100.2"/>
<path class="st2" d="M291.6,134.6c0-38.9-16.2-70.4-36.3-70.4"/>
<path class="st2" d="M211.6,164.5c-1.9-54.5,17.6-99.3,43.6-100.2"/>
<g>
	<g>
		<g id="XMLID_1_">
			<g>
				<path class="st3" d="M132.6,118.9c8.6,0.3,15.2,13.4,14.6,29.3l-26.8-9C120.4,127.9,125.9,118.9,132.6,118.9z"/>
			</g>
			<g>
				<path class="st2" d="M120.4,139.1c0-11.2,5.4-20.2,12.2-20.2"/>
				<path class="st2" d="M147.2,148.2c0.6-15.9-6-29-14.6-29.3"/>
				<line class="st2" x1="120.4" y1="139.1" x2="147.2" y2="148.2"/>
			</g>
		</g>
	</g>
</g>
<path class="st2" d="M76.9,31.2c6.9-18,45.9-19.8,87.1-4"/>
<path class="st2" d="M312.4,31.2c-6.9-18-45.9-19.8-87.1-4"/>
<g id="XMLID_2_">
	<g>
		<path class="st3" d="M268.7,139.1l-26.8,9c-0.6-15.9,6-29,14.6-29.3C263.2,118.9,268.7,127.9,268.7,139.1z"/>
	</g>
	<g>
		<path class="st2" d="M268.7,139.1c0-11.2-5.4-20.2-12.2-20.2"/>
		<path class="st2" d="M241.9,148.2c-0.6-15.9,6-29,14.6-29.3"/>
		<line class="st2" x1="268.7" y1="139.1" x2="241.9" y2="148.2"/>
	</g>
</g>
<line class="st2" x1="12.6" y1="134.6" x2="24.2" y2="156.3"/>
<line class="st2" x1="367.4" y1="134.6" x2="356.4" y2="156.9"/>
<path class="st0" d="M344.5,275.4c0-56.8,4.1-102.7,9.2-102.7"/>
<path class="st0" d="M344.5,275.4c0,53.6,4.1,96.9,9.2,96.9"/>
<path class="st0" d="M33.6,270.1c0-53.8-3.8-97.4-8.5-97.4"/>
<path class="st0" d="M33.5,270.1c0,53.6-4.1,96.9-9.2,96.9"/>
<g id="XMLID_4_">
	<g>
		<polygon class="st4" points="327.4,185.5 234.7,376.7 210.3,376.7 306.2,185.5 		"/>
	</g>
	<g>
	</g>
</g>
</svg>
